<svg width="32" height="30" viewBox="0 0 32 30" fill="none" xmlns="http://www.w3.org/2000/svg">
<path d="M28.8366 15.812C28.8366 8.78931 23.0681 3.10621 15.9647 3.10621C8.86123 3.10621 3.09271 8.78931 3.09271 15.812C3.09271 22.8346 8.86123 28.5177 15.9647 28.5177V29.6471C8.22024 29.6471 1.94214 23.4529 1.94214 15.812C1.94214 8.17102 8.22024 1.97681 15.9647 1.97681C23.7091 1.97681 29.9872 8.17102 29.9872 15.812C29.9872 23.4529 23.7091 29.6471 15.9647 29.6471V28.5177C23.0681 28.5177 28.8366 22.8346 28.8366 15.812Z" fill="white"/>
<path d="M22.7953 13.7647L26.463 14.1179L28.045 17.4355L29.2675 14.9649L27.6135 9.24732L24.8809 7.69439L25.4562 11.2944L22.7953 13.7647Z" fill="white"/>
<path d="M15.9643 8.89404L17.5463 5.7176L21.0699 5.01173L18.7688 2.75292L13.2317 2.75292L10.8586 5.01172L14.4542 5.7176L15.9643 8.89404Z" fill="white"/>
<path d="M20.2071 21.6706L20.8542 25.2L18.1936 27.7411L21.6453 27.7411L26.4633 24.0706L26.4633 21.8118L23.443 23.2941L20.2071 21.6706Z" fill="white"/>
<path d="M11.2183 25.2003L11.7217 21.6709L8.62957 23.3649L5.3936 21.6709L5.68125 24.3532L10.2116 28.0943L13.7352 27.7414L11.2183 25.2003Z" fill="white"/>
<path d="M9.06072 13.6942L6.54385 11.2942L7.04722 7.83542L4.31463 9.24717L2.30113 14.1883L3.95507 17.3647L5.39328 14.1883L9.06072 13.6942Z" fill="white"/>
<path d="M19.4875 16.8703L22.7953 13.7645L18.1931 13.0586L15.9641 8.89421L13.8066 13.0586L9.06074 13.6941L12.4402 16.8703L11.7214 21.6705L15.9942 19.6233L20.2068 21.6705L19.4875 16.8703Z" fill="white"/>
</svg>
