<svg width="27" height="25" viewBox="0 0 27 25" fill="none" xmlns="http://www.w3.org/2000/svg">
<path d="M26.0957 12.5C26.0957 6.05888 20.4564 0.837321 13.5 0.837321C6.54359 0.837321 0.904306 6.05888 0.904306 12.5C0.904306 18.9411 6.54359 24.1627 13.5 24.1627V25C6.04416 25 0 19.4036 0 12.5C0 5.59644 6.04416 0 13.5 0C20.9558 0 27 5.59644 27 12.5C27 19.4036 20.9558 25 13.5 25V24.1627C20.4564 24.1627 26.0957 18.9411 26.0957 12.5Z" fill="white"/>
<path d="M20.7198 2.66383C20.7191 2.66448 20.7177 2.66588 20.7155 2.66801C20.7112 2.67229 20.704 2.67955 20.694 2.68978C20.674 2.71026 20.6429 2.74263 20.6025 2.78683C20.5217 2.87524 20.4033 3.01093 20.2597 3.19313C19.9723 3.55764 19.5846 4.10786 19.1956 4.83909C18.4182 6.3004 17.634 8.48632 17.634 11.3637C17.6341 14.1794 19.0022 16.5607 20.4023 18.2576C21.1 19.1033 21.7982 19.7699 22.3213 20.2243C22.5826 20.4513 22.7994 20.6247 22.9496 20.7404C23.0246 20.7982 23.083 20.8416 23.1218 20.87C23.1412 20.8842 23.1558 20.8946 23.1651 20.9013L23.1771 20.9098C23.177 20.9097 23.1768 20.9096 22.866 21.2919C22.5552 21.6741 22.5551 21.674 22.5549 21.6738L22.534 21.6591C22.5216 21.6502 22.5038 21.6375 22.4811 21.6209C22.4358 21.5877 22.3706 21.5392 22.2884 21.4759C22.1242 21.3494 21.8919 21.1634 21.6143 20.9222C21.0595 20.4402 20.3205 19.7349 19.581 18.8386C18.1067 17.0517 16.6006 14.4689 16.6006 11.3636C16.6006 8.31993 17.4311 5.9902 18.2685 4.41621C18.6869 3.62984 19.1067 3.03257 19.4249 2.6289C19.584 2.42703 19.718 2.27337 19.8138 2.16856C19.8617 2.11618 19.9001 2.07598 19.9274 2.04802C19.9411 2.03404 19.9519 2.02309 19.9598 2.01524C19.9638 2.01133 19.967 2.00818 19.9694 2.0058C19.9706 2.0046 19.9717 2.00351 19.9725 2.0027C19.9729 2.0023 19.9733 2.00192 19.9736 2.00162C19.9738 2.00147 19.974 2.00128 19.9741 2.00121L20.7198 2.66383ZM20.72 2.66369L20.7198 2.66383C20.7201 2.66356 20.7202 2.66342 20.7202 2.66342C20.7202 2.66345 20.7201 2.66357 20.72 2.66369Z" fill="white"/>
<path d="M20.6431 4.77939C20.8944 4.90467 20.9884 5.19485 20.8531 5.42751C20.7178 5.66018 20.4044 5.74723 20.1532 5.62195L16.7943 3.94733C16.5431 3.82205 16.4491 3.53187 16.5844 3.29921C16.7197 3.06654 17.033 2.97949 17.2843 3.10477L20.6431 4.77939Z" fill="white"/>
<path d="M19.0815 8.14119L19.1075 8.14608C19.3739 8.20312 19.548 8.4443 19.4994 8.69632C19.4508 8.94834 19.1973 9.11881 18.9261 9.08696L18.8999 9.08323L15.2826 8.48513C15.0016 8.43868 14.8146 8.19014 14.8647 7.93C14.9149 7.66987 15.1833 7.49664 15.4643 7.54309L19.0815 8.14119Z" fill="white"/>
<path d="M18.7671 11.6107C19.0478 11.5626 19.3174 11.7342 19.3693 11.994C19.4213 12.2539 19.2359 12.5035 18.9553 12.5516L15.4673 13.1497C15.1867 13.1978 14.9171 13.0262 14.8651 12.7664C14.8131 12.5065 14.9985 12.2569 15.2791 12.2088L18.7671 11.6107Z" fill="white"/>
<path d="M19.6638 15.1226L19.6879 15.1121C19.9382 15.0105 20.2334 15.1076 20.3571 15.3366C20.4807 15.5655 20.3875 15.8424 20.1495 15.9669L20.126 15.9785L17.0255 17.4139C16.7702 17.5321 16.4598 17.4363 16.3322 17.1999C16.2045 16.9636 16.308 16.6762 16.5633 16.558L19.6638 15.1226Z" fill="white"/>
<path d="M21.6163 18.185C21.8284 18.0082 22.1551 18.0242 22.346 18.2206C22.537 18.417 22.5198 18.7195 22.3076 18.8963L19.7239 21.0494C19.5118 21.2262 19.185 21.2103 18.9941 21.0138C18.8032 20.8174 18.8204 20.5149 19.0325 20.3381L21.6163 18.185Z" fill="white"/>
<path d="M4.98099 21.3517C4.98175 21.3511 4.98338 21.3499 4.98585 21.3481C4.99079 21.3445 4.99912 21.3383 5.01064 21.3295C5.03371 21.312 5.06961 21.2843 5.11666 21.2461C5.21076 21.1698 5.34962 21.0519 5.52089 20.8915C5.86352 20.5706 6.33519 20.0798 6.8372 19.4101C7.84043 18.072 8.9665 16.0181 9.42806 13.1727C9.87972 10.3882 8.90872 7.84513 7.79642 5.97451C7.24209 5.04228 6.65851 4.28703 6.21412 3.76572C5.99216 3.50534 5.80557 3.30402 5.67565 3.16895C5.61071 3.10143 5.5599 3.05053 5.52607 3.01711C5.50917 3.00042 5.49646 2.98806 5.48834 2.98023L5.47778 2.97014C5.47787 2.97023 5.47807 2.97036 5.84673 2.63508C6.21538 2.29983 6.21551 2.29998 6.21568 2.30014L6.23393 2.31757C6.24482 2.32808 6.26035 2.34314 6.2801 2.36264C6.31966 2.40171 6.37636 2.45861 6.44742 2.53249C6.58954 2.68024 6.78938 2.89611 7.02527 3.17283C7.49661 3.72576 8.11424 4.52489 8.70174 5.51291C9.87307 7.4828 10.9482 10.2441 10.4501 13.3149C9.96181 16.3248 8.76676 18.5145 7.68617 19.9558C7.1463 20.6759 6.63534 21.2089 6.25591 21.5643C6.06615 21.742 5.90905 21.8756 5.7975 21.966C5.74174 22.0113 5.69727 22.0457 5.66578 22.0696C5.65004 22.0816 5.63755 22.0909 5.62847 22.0976C5.62395 22.1009 5.62028 22.1036 5.61748 22.1056C5.61608 22.1066 5.61486 22.1075 5.6139 22.1082C5.61344 22.1086 5.61298 22.1089 5.61262 22.1091C5.61245 22.1093 5.6122 22.1094 5.61211 22.1095L4.98099 21.3517ZM4.98074 21.3518L4.98099 21.3517C4.98068 21.3519 4.98048 21.352 4.98048 21.352C4.98051 21.352 4.98061 21.3519 4.98074 21.3518Z" fill="white"/>
<path d="M5.39632 19.2699C5.16793 19.1115 5.1215 18.8116 5.29263 18.6001C5.46375 18.3886 5.78763 18.3457 6.01602 18.5041L9.06895 20.6221C9.29734 20.7805 9.34377 21.0804 9.17264 21.2919C9.00152 21.5034 8.67764 21.5464 8.44925 21.3879L5.39632 19.2699Z" fill="white"/>
<path d="M7.4799 16.1598L7.45501 16.1514C7.20074 16.0583 7.06724 15.7959 7.15573 15.5533C7.24422 15.3108 7.52227 15.1771 7.78538 15.2459L7.81068 15.2532L11.2919 16.3421C11.5623 16.4267 11.7074 16.6982 11.6161 16.9486C11.5247 17.1989 11.2315 17.3333 10.9611 17.2487L7.4799 16.1598Z" fill="white"/>
<path d="M8.34721 12.7721C8.06198 12.7811 7.82289 12.5743 7.81318 12.3102C7.80347 12.0461 8.02682 11.8247 8.31205 11.8157L11.8573 11.7039C12.1426 11.6949 12.3816 11.9018 12.3914 12.1659C12.4011 12.4299 12.1777 12.6513 11.8925 12.6603L8.34721 12.7721Z" fill="white"/>
<path d="M8.02401 9.17629L7.9985 9.18336C7.7346 9.24936 7.45827 9.11275 7.37274 8.86934C7.2872 8.62592 7.4238 8.36491 7.67912 8.27449L7.70424 8.26631L11.0006 7.27321C11.272 7.19145 11.5636 7.32888 11.6519 7.58017C11.7402 7.83145 11.5918 8.10144 11.3204 8.1832L8.02401 9.17629Z" fill="white"/>
<path d="M6.58414 5.87939C6.346 6.02503 6.02545 5.96435 5.86816 5.74386C5.71087 5.52336 5.7764 5.22655 6.01453 5.08091L8.91499 3.30702C9.15312 3.16138 9.47368 3.22206 9.63097 3.44256C9.78826 3.66305 9.72273 3.95986 9.48459 4.1055L6.58414 5.87939Z" fill="white"/>
</svg>
