<svg width="27" height="25" viewBox="0 0 27 25" fill="none" xmlns="http://www.w3.org/2000/svg">
<path d="M25.8 12.5C25.8 6.21009 20.2931 1.11111 13.5 1.11111C6.7069 1.11111 1.2 6.21009 1.2 12.5C1.2 18.7899 6.7069 23.8889 13.5 23.8889V25C6.04416 25 0 19.4036 0 12.5C0 5.59644 6.04416 0 13.5 0C20.9558 0 27 5.59644 27 12.5C27 19.4036 20.9558 25 13.5 25V23.8889C20.2931 23.8889 25.8 18.7899 25.8 12.5Z" fill="white"/>
<path d="M15.7123 16.1485C15.3668 18.0368 14.404 20.1239 13.5496 21.7128C13.1193 22.5131 12.7103 23.1985 12.4085 23.6841C12.2575 23.9271 12.1332 24.1204 12.0462 24.2536C12.0027 24.3202 11.9685 24.3718 11.9449 24.4071C11.9332 24.4247 11.9241 24.4383 11.9179 24.4476C11.9147 24.4523 11.9123 24.4559 11.9106 24.4584C11.9098 24.4596 11.909 24.4605 11.9086 24.4612C11.9083 24.4616 11.9082 24.4619 11.908 24.4622C11.908 24.4623 11.9078 24.4624 11.9078 24.4624C11.9069 24.462 11.8867 24.4503 11.4 24.1665L10.8921 23.8706C10.8922 23.8706 10.8923 23.8704 10.8925 23.8702C10.8927 23.8699 10.8931 23.8692 10.8938 23.8682C10.895 23.8664 10.897 23.8635 10.8997 23.8596C10.9051 23.8516 10.9132 23.8395 10.924 23.8233C10.9456 23.7908 10.9779 23.7422 11.0194 23.6787C11.1023 23.5517 11.2222 23.3653 11.3684 23.13C11.661 22.6591 12.0582 21.9937 12.4755 21.2176C13.3163 19.6538 14.2139 17.6855 14.5292 15.9629C14.8508 14.2055 15.0158 10.4882 15.0983 7.16565C15.1393 5.51401 15.1597 3.97455 15.1698 2.84786C15.1749 2.28459 15.1774 1.82462 15.1787 1.50565C15.1793 1.34622 15.1796 1.22201 15.1798 1.13773C15.1798 1.09558 15.1799 1.06332 15.1799 1.04174C15.1799 1.03098 15.1798 1.02285 15.1798 1.01742C15.1798 1.01471 15.1798 1.01262 15.1798 1.01127C15.1798 1.01064 15.1799 1.01016 15.1799 1.00984C15.1799 1.00968 15.1798 1.00948 15.1798 1.0094C15.1799 1.00933 15.1875 1.00935 15.7799 1.00927C16.3799 1.00919 16.3799 1.00926 16.3799 1.00936C16.3799 1.00945 16.3798 1.00961 16.3798 1.00979C16.3798 1.01015 16.3799 1.01074 16.3799 1.01145C16.3799 1.01287 16.3798 1.01496 16.3798 1.01771C16.3798 1.02329 16.3798 1.03161 16.3798 1.04256C16.3798 1.06446 16.3798 1.09697 16.3798 1.13944C16.3796 1.22441 16.3792 1.34942 16.3786 1.50966C16.3774 1.83017 16.3749 2.29191 16.3698 2.85715C16.3596 3.98747 16.3392 5.53259 16.298 7.19118C16.2161 10.4891 16.0515 14.2951 15.7123 16.1485Z" fill="white"/>
<path d="M5.1059 6.02169C7.85538 4.77715 11.6915 3.67598 15.9394 4.34112C20.1142 4.99483 22.7602 6.32323 24.3744 7.51742C25.1798 8.11327 25.7233 8.67207 26.0696 9.08977C26.2426 9.29851 26.3662 9.47181 26.4485 9.59665C26.4896 9.65907 26.5204 9.70944 26.5419 9.74602C26.5527 9.7643 26.5612 9.77915 26.5674 9.79037C26.5705 9.79597 26.5731 9.80071 26.5751 9.80447C26.5761 9.80634 26.5771 9.80795 26.5778 9.80936C26.5782 9.81007 26.5785 9.81076 26.5788 9.81135C26.5789 9.81162 26.5791 9.81196 26.5792 9.81213C26.5794 9.81251 26.5796 9.81291 26.0399 10.0556C25.5124 10.2929 25.5006 10.2986 25.5005 10.299C25.5006 10.2991 25.5008 10.2994 25.5009 10.2996C25.501 10.2999 25.5012 10.3002 25.5013 10.3005C25.5015 10.3009 25.5017 10.3012 25.5017 10.3012C25.5017 10.3012 25.5012 10.3003 25.5002 10.2986C25.4982 10.295 25.4942 10.2878 25.4881 10.2773C25.4757 10.2563 25.4548 10.2218 25.4242 10.1754C25.363 10.0826 25.2634 9.94205 25.1177 9.76624C24.8264 9.41483 24.3499 8.92151 23.6253 8.38541C22.1793 7.31566 19.7249 6.06068 15.7393 5.43659C11.8267 4.82396 8.2531 5.83395 5.63294 7.01995C4.32593 7.61157 3.26677 8.24226 2.53576 8.72422C2.1706 8.96497 1.88822 9.16807 1.69861 9.30968C1.60382 9.38047 1.53227 9.43588 1.48528 9.47289C1.46178 9.49139 1.44434 9.50522 1.43327 9.51415C1.42775 9.5186 1.42381 9.52185 1.42145 9.52378L1.41888 9.52595L1.41889 9.52585C1.41832 9.52506 1.4024 9.50829 1.01978 9.11113C0.62038 8.69654 0.620591 8.69637 0.6208 8.69619L0.622876 8.69443C0.62411 8.69342 0.625721 8.69205 0.627756 8.69039C0.631854 8.68704 0.637626 8.68242 0.64494 8.67652C0.659572 8.66471 0.680646 8.64783 0.707915 8.62636C0.762445 8.58342 0.841996 8.52196 0.945199 8.44489C1.15162 8.29072 1.45312 8.07401 1.83971 7.81913C2.61229 7.30977 3.72808 6.64536 5.1059 6.02169Z" fill="white"/>
<path d="M21.8704 21.0466C21.8717 21.0427 21.8741 21.0353 21.8775 21.0243C21.8843 21.0023 21.8951 20.966 21.9084 20.9156C21.9349 20.8149 21.9713 20.658 22.006 20.4468C22.0753 20.0246 22.1379 19.3849 22.1004 18.5437C22.0256 16.8633 21.5509 14.367 19.9177 11.1832C18.1976 7.82995 18.4437 5.64247 19.287 4.26079C19.6999 3.58443 20.2332 3.14161 20.6636 2.86784C20.8789 2.73085 21.0703 2.63501 21.2115 2.5722C21.2822 2.54074 21.3406 2.51734 21.3837 2.50114C21.4052 2.49304 21.423 2.4867 21.4365 2.48201C21.4433 2.47968 21.449 2.47777 21.4536 2.47624C21.4559 2.47548 21.4579 2.47483 21.4597 2.47426C21.4605 2.47398 21.4613 2.47364 21.4621 2.47341C21.4624 2.4733 21.4629 2.47322 21.4631 2.47315C21.4636 2.473 21.4641 2.47281 21.6597 2.99802C21.7575 3.26064 21.8064 3.39194 21.831 3.45753L21.8561 3.52302C21.8523 3.52432 21.8453 3.52683 21.8354 3.53056C21.8137 3.53874 21.778 3.55284 21.7312 3.57364C21.6375 3.61537 21.5007 3.68338 21.3431 3.78362C21.0276 3.98435 20.6357 4.30961 20.3318 4.80752C19.7416 5.77441 19.3877 7.5604 21.0016 10.7066C22.7024 14.0222 23.2178 16.6647 23.2994 18.4979C23.3402 19.4136 23.2726 20.1246 23.1923 20.6139C23.1521 20.8584 23.1088 21.0473 23.0742 21.1786C23.057 21.2442 23.042 21.2954 23.0306 21.3319C23.0249 21.3502 23.0202 21.3648 23.0165 21.3757C23.0147 21.3811 23.0131 21.3856 23.0119 21.3892C23.0113 21.391 23.0108 21.3925 23.0103 21.3938C23.0101 21.3945 23.0098 21.3952 23.0096 21.3957C23.0095 21.396 23.0094 21.3964 23.0094 21.3965C23.0091 21.3968 22.9986 21.3939 22.4397 21.2222C21.8702 21.0472 21.8701 21.0475 21.87 21.0478C21.87 21.0479 21.8698 21.0482 21.8698 21.0483L21.8704 21.0466ZM21.858 3.5224C21.8577 3.5225 21.8573 3.52262 21.8569 3.52277C21.8566 3.52284 21.8562 3.52298 21.8561 3.52302C21.8564 3.5229 21.8567 3.52275 21.857 3.52265C21.8582 3.52224 21.859 3.52199 21.8592 3.52192C21.859 3.52197 21.8587 3.52219 21.858 3.5224ZM21.8696 21.0491C21.8695 21.0493 21.8694 21.0495 21.8694 21.0495C21.8694 21.0494 21.8695 21.049 21.8698 21.0483C21.8697 21.0486 21.8696 21.0489 21.8696 21.0491Z" fill="white"/>
<path d="M3.11988 19.1666C3.66977 19.281 3.70311 19.288 3.7051 19.2886C3.70513 19.2885 3.70531 19.2883 3.70535 19.2882C3.70566 19.2869 3.70629 19.2845 3.7072 19.281C3.70905 19.2738 3.71213 19.262 3.71656 19.2457C3.72544 19.2131 3.7397 19.1625 3.76017 19.0953C3.8011 18.9607 3.86684 18.7593 3.96369 18.5008C4.15745 17.9838 4.47568 17.2391 4.96949 16.3451C5.95694 14.5574 7.64601 12.1731 10.4466 9.8156C11.9422 8.55653 12.6808 7.34939 12.8633 6.212C13.0469 5.06807 12.6533 4.08662 12.0854 3.31233C11.5224 2.5447 10.7737 1.95821 10.183 1.56911C9.88492 1.37273 9.62017 1.22221 9.42854 1.12004C9.33261 1.06889 9.25462 1.02955 9.19934 1.00254C9.17168 0.989028 9.14964 0.978574 9.13392 0.971192C9.12606 0.967502 9.11974 0.964561 9.11509 0.962416C9.11277 0.961348 9.11084 0.960483 9.10934 0.959801C9.10859 0.95946 9.10792 0.959208 9.10738 0.958963C9.10713 0.958847 9.10684 0.958676 9.1067 0.958611C9.1064 0.958475 9.10612 0.958367 8.84291 1.4576C8.57971 1.95685 8.57944 1.95669 8.57925 1.9566C8.57953 1.95673 8.57997 1.95701 8.58062 1.95731C8.58257 1.9582 8.58616 1.95981 8.59119 1.96218C8.60131 1.96693 8.61753 1.97466 8.63916 1.98524C8.68249 2.00641 8.7476 2.03907 8.82975 2.08287C8.99437 2.17064 9.22592 2.30222 9.48741 2.47448C10.016 2.82266 10.6403 3.31961 11.0927 3.93647C11.5402 4.5467 11.8043 5.25097 11.6763 6.04873C11.5473 6.85303 11.0051 7.84372 9.63925 8.99346C6.71678 11.4536 4.94432 13.9503 3.90103 15.8392C3.37948 16.7834 3.04006 17.576 2.82998 18.1366C2.72493 18.4169 2.65219 18.6394 2.60515 18.794C2.58162 18.8713 2.56453 18.9318 2.55303 18.974C2.54729 18.9951 2.54291 19.0116 2.53986 19.0234C2.53834 19.0293 2.53716 19.0341 2.53628 19.0376C2.53583 19.0394 2.53542 19.041 2.53513 19.0421C2.53499 19.0427 2.53482 19.0432 2.53471 19.0437C2.53466 19.0439 2.53459 19.0442 2.53456 19.0443C2.5348 19.0446 2.54786 19.0475 3.11988 19.1666ZM8.5789 1.95648C8.57896 1.95651 8.57909 1.95664 8.57924 1.95671L8.5789 1.95648Z" fill="white"/>
</svg>
