<svg width="25" height="28" viewBox="0 0 25 28" fill="none" xmlns="http://www.w3.org/2000/svg">
<path d="M14.9477 16.6497L19.3483 20.9863L17.9272 22.4181L13.5266 18.0815L14.9477 16.6497ZM17.9232 21.7062L18.6338 20.9902L14.9516 17.3617L14.2411 18.0776L17.9232 21.7062Z" fill="white"/>
<path d="M24.1968 25.5878L24.556 25.9418L22.9573 27.5526L22.5981 27.1986L24.1968 25.5878ZM24.1958 25.4098L19.7054 20.9847C19.6558 20.9358 19.5758 20.9363 19.5268 20.9857L17.9281 22.5965C17.879 22.6459 17.8795 22.7256 17.9291 22.7745L22.4195 27.1996C22.4691 27.2484 22.549 27.248 22.5981 27.1986L22.9573 27.5526L22.9339 27.575C22.6952 27.7923 22.329 27.7944 22.0879 27.5796L22.0642 27.5575L17.5738 23.1324C17.3258 22.8881 17.3236 22.4896 17.5688 22.2425L19.1676 20.6317C19.4128 20.3846 19.8127 20.3824 20.0607 20.6268L24.5511 25.0518C24.7913 25.2886 24.8009 25.6699 24.5782 25.9182L24.556 25.9418L24.1968 25.5878C24.2459 25.5384 24.2454 25.4587 24.1958 25.4098Z" fill="white"/>
<path d="M12.1326 8.38825C9.57202 5.86489 6.02019 5.59749 4.17837 7.45325C2.33655 9.309 2.64428 12.845 5.20491 15.3684C7.76553 17.8918 11.3174 18.1591 13.1592 16.3034L13.5184 16.6574C11.4092 18.7826 7.52802 18.3658 4.84964 15.7263C2.17126 13.0869 1.70989 9.22445 3.81914 7.09924C5.92839 4.97404 9.80953 5.39088 12.4879 8.0303C15.1663 10.6697 15.6277 14.5322 13.5184 16.6574L13.1592 16.3034C15.001 14.4476 14.6933 10.9116 12.1326 8.38825Z" fill="white"/>
<path d="M17.5823 19.2523L17.1667 19.5386L17.1666 19.5384L17.1664 19.5382L17.164 19.5347C17.1625 19.5326 17.1605 19.5296 17.158 19.5258C17.1529 19.5182 17.1456 19.5073 17.1365 19.4933C17.1181 19.465 17.0918 19.4237 17.059 19.3697C16.9935 19.2618 16.9019 19.1029 16.7948 18.895C16.5804 18.4792 16.3035 17.8672 16.0489 17.0753C15.7927 16.2786 15.6742 15.5722 15.6198 15.064C15.5926 14.8098 15.5812 14.6046 15.5768 14.4619C15.5746 14.3906 15.5741 14.3348 15.5741 14.2963C15.5742 14.2771 15.5744 14.2621 15.5745 14.2517C15.5746 14.2465 15.5747 14.2423 15.5748 14.2394C15.5748 14.238 15.5749 14.2368 15.5749 14.2359C15.5749 14.2355 15.575 14.2351 15.575 14.2348C15.575 14.2346 15.5749 14.2345 15.5749 14.2344L15.575 14.2343C15.5755 14.2342 15.5873 14.2346 15.8274 14.2421L16.0799 14.2499L16.0799 14.25C16.0799 14.2503 16.0799 14.2508 16.0798 14.2517C16.0798 14.2534 16.0797 14.2563 16.0797 14.2602C16.0795 14.2682 16.0794 14.2805 16.0794 14.2971C16.0793 14.3304 16.0798 14.3808 16.0819 14.4464C16.0859 14.5776 16.0963 14.7701 16.1221 15.0106C16.1736 15.4919 16.2863 16.1637 16.53 16.9217C16.7753 17.6844 17.0409 18.2709 17.2441 18.6649C17.3456 18.8619 17.4316 19.0107 17.4914 19.1092C17.5213 19.1585 17.5446 19.1952 17.5602 19.2191C17.568 19.2311 17.5738 19.2399 17.5775 19.2454C17.5794 19.2481 17.5807 19.2501 17.5815 19.2512L17.5823 19.2523Z" fill="white"/>
<path d="M16.1393 20.7058L16.422 20.2886L16.4218 20.2885L16.4216 20.2884L16.4181 20.286C16.4159 20.2845 16.4129 20.2825 16.409 20.28C16.4014 20.275 16.3904 20.268 16.3762 20.259C16.3476 20.241 16.3059 20.2152 16.2513 20.1832C16.1423 20.1191 15.9818 20.0296 15.772 19.9252C15.3524 19.7162 14.7351 19.4471 13.9377 19.2021C13.1353 18.9557 12.4252 18.8455 11.9146 18.7969C11.6591 18.7726 11.4531 18.7636 11.3099 18.7608C11.2383 18.7594 11.1823 18.7595 11.1437 18.7599C11.1244 18.7602 11.1093 18.7606 11.0989 18.7609C11.0936 18.761 11.0895 18.7611 11.0866 18.7612C11.0851 18.7613 11.084 18.7613 11.0831 18.7614C11.0826 18.7614 11.0822 18.7615 11.0819 18.7615C11.0818 18.7615 11.0817 18.7614 11.0816 18.7614L11.0814 18.7615C11.0814 18.762 11.0818 18.7738 11.0921 19.0129L11.1027 19.2644L11.1028 19.2644C11.1031 19.2644 11.1036 19.2644 11.1045 19.2643C11.1062 19.2643 11.1091 19.2642 11.1131 19.2641C11.121 19.2638 11.1334 19.2636 11.1501 19.2634C11.1835 19.2629 11.234 19.2629 11.2999 19.2642C11.4316 19.2668 11.6249 19.275 11.8665 19.298C12.3501 19.344 13.0255 19.4488 13.7888 19.6833C14.557 19.9192 15.1485 20.1773 15.5461 20.3754C15.7449 20.4744 15.8951 20.5584 15.9947 20.6169C16.0445 20.6461 16.0816 20.669 16.1058 20.6842C16.1179 20.6918 16.1267 20.6976 16.1323 20.7012C16.1351 20.703 16.1371 20.7043 16.1382 20.7051L16.1393 20.7058Z" fill="white"/>
<path opacity="0.9" d="M3.37517 7.547L3.73044 7.18904L13.3418 16.6606L12.9866 17.0186L3.37517 7.547Z" fill="white"/>
<path opacity="0.9" d="M2.5868 10.3103L2.94207 9.95231L10.6656 17.5634L10.3103 17.9214L2.5868 10.3103Z" fill="white"/>
<path opacity="0.9" d="M5.95888 6.37581L6.31415 6.01785L14.6663 14.2485L14.311 14.6064L5.95888 6.37581Z" fill="white"/>
<path opacity="0.9" d="M12.3076 8.03336L12.6668 8.38736L5.29502 15.8149L4.93579 15.4609L12.3076 8.03336Z" fill="white"/>
<path opacity="0.9" d="M10.1579 6.61939L10.5171 6.97339L3.85581 13.6851L3.49658 13.3311L10.1579 6.61939Z" fill="white"/>
<path opacity="0.9" d="M7.56336 5.83237L7.92259 6.18638L2.94883 11.1978L2.5896 10.8438L7.56336 5.83237Z" fill="white"/>
<path opacity="0.9" d="M13.8402 10.2478L14.1995 10.6018L7.53819 17.3135L7.17896 16.9595L13.8402 10.2478Z" fill="white"/>
<path opacity="0.9" d="M14.3896 12.7369L14.7489 13.0909L9.95274 17.9233L9.59351 17.5693L14.3896 12.7369Z" fill="white"/>
<path d="M2.69901 5.99525C3.9293 4.75568 5.61874 4.18424 7.40045 4.24795C7.42309 4.4203 7.46159 4.59094 7.51603 4.75754C5.80748 4.66754 4.19879 5.20014 3.05821 6.34935C0.66632 8.75941 1.01899 13.1904 4.1322 16.2584C7.24546 19.3263 11.696 19.6286 14.0879 17.2186C16.4799 14.8085 16.1273 10.3774 13.0141 7.3094C12.6134 6.91458 12.1905 6.56565 11.7528 6.26233C11.8983 6.16912 12.0371 6.06136 12.1671 5.93908C12.5851 6.23791 12.9878 6.57555 13.3693 6.95149L13.4448 7.02671C16.6208 10.2226 17.0753 14.9245 14.4472 17.5725C11.7984 20.2414 7.02113 19.8133 3.77696 16.6163C0.532827 13.4193 0.0502184 8.66412 2.69901 5.99525Z" fill="white"/>
<path d="M11.8638 2.2596C10.8966 1.30648 9.33712 1.3151 8.3806 2.27886C7.42408 3.24261 7.43273 4.79655 8.39993 5.74967C9.36712 6.70279 10.9266 6.69417 11.8831 5.73042L12.1525 5.99592C11.0489 7.10795 9.24947 7.11789 8.13348 6.01814C7.01748 4.91838 7.0075 3.12538 8.11118 2.01335C9.21486 0.901329 11.0143 0.891382 12.1302 1.99114C13.2462 3.09089 13.2562 4.8839 12.1525 5.99592L11.8831 5.73042C12.8396 4.76666 12.831 3.21272 11.8638 2.2596Z" fill="white"/>
<path d="M12.2938 5.36275C12.2938 5.36271 12.2937 5.36266 12.1685 5.50433C12.045 5.64412 12.0433 5.64605 12.0432 5.64604L12.0431 5.64592C12.043 5.64584 12.0429 5.64565 12.0428 5.64555C12.0426 5.64536 12.0423 5.64513 12.0419 5.64484C12.0413 5.64425 12.0403 5.64343 12.0393 5.64246C12.0371 5.64052 12.0341 5.63779 12.0304 5.63437C12.0229 5.62748 12.0123 5.61762 11.999 5.60493C11.9725 5.57953 11.9353 5.54268 11.891 5.49539C11.8024 5.40099 11.6843 5.26409 11.5649 5.09282C11.328 4.75284 11.0763 4.26301 11.0575 3.69275C11.0388 3.1271 11.2305 2.64644 11.4216 2.31168C11.5175 2.14367 11.6146 2.01001 11.6882 1.91787C11.725 1.87172 11.7563 1.83576 11.7786 1.81089C11.7898 1.79846 11.7988 1.78876 11.8053 1.78194C11.8085 1.77852 11.8111 1.77581 11.8131 1.77384C11.814 1.77287 11.8147 1.77204 11.8153 1.77143C11.8156 1.77112 11.816 1.77089 11.8162 1.77067C11.8163 1.77056 11.8163 1.77038 11.8164 1.77029L11.8165 1.77029C11.8166 1.77024 11.8166 1.77016 11.9513 1.90288C12.0805 2.03015 12.0859 2.03542 12.0861 2.0356L12.0864 2.03534C12.0863 2.03545 12.0859 2.03579 12.0855 2.03623C12.0846 2.03714 12.083 2.03875 12.0809 2.04104C12.0765 2.04563 12.0697 2.05298 12.0608 2.06291C12.0429 2.0828 12.0166 2.11312 11.9848 2.15298C11.9209 2.23289 11.8354 2.35038 11.7509 2.49836C11.5812 2.79562 11.4205 3.20679 11.4361 3.68035C11.4515 4.14926 11.6607 4.56832 11.8761 4.87745C11.9829 5.0307 12.0888 5.15346 12.1676 5.23752C12.207 5.27946 12.2394 5.31161 12.2616 5.33284C12.2727 5.34346 12.2812 5.35129 12.2867 5.35632C12.2894 5.35879 12.2914 5.36061 12.2926 5.36168C12.2932 5.36221 12.2936 5.36258 12.2938 5.36275Z" fill="white"/>
<path d="M7.89416 2.60552C7.8942 2.60555 7.8943 2.6056 8.01948 2.46393C8.143 2.32415 8.14472 2.32221 8.1448 2.32223L8.14492 2.32235C8.14501 2.32242 8.14507 2.32261 8.14518 2.32271C8.14541 2.32291 8.14574 2.32313 8.14607 2.32342C8.14673 2.32401 8.14765 2.32483 8.14873 2.3258C8.1509 2.32774 8.15387 2.33047 8.15761 2.3339C8.16514 2.34078 8.17573 2.35064 8.18898 2.36333C8.21548 2.38874 8.25267 2.42559 8.29704 2.47287C8.38562 2.56727 8.50373 2.70417 8.62307 2.87544C8.85996 3.21542 9.1117 3.70526 9.1305 4.27551C9.14915 4.84116 8.9575 5.32182 8.76637 5.65658C8.67044 5.82459 8.57342 5.95826 8.49981 6.0504C8.46294 6.09654 8.43173 6.1325 8.40936 6.15737C8.39817 6.16981 8.38917 6.1795 8.38271 6.18632C8.37948 6.18974 8.37684 6.19245 8.37493 6.19443C8.37399 6.19539 8.37326 6.19622 8.37266 6.19683C8.37235 6.19714 8.37203 6.19737 8.37182 6.19759C8.37171 6.1977 8.37167 6.19788 8.37158 6.19797L8.37146 6.19797C8.37141 6.19803 8.37135 6.19811 8.23667 6.06538C8.10752 5.93811 8.10213 5.93284 8.10187 5.93266L8.10163 5.93292C8.10173 5.93282 8.10204 5.93247 8.10247 5.93203C8.10335 5.93112 8.10497 5.92951 8.10714 5.92722C8.11148 5.92263 8.11827 5.91528 8.12721 5.90535C8.1451 5.88546 8.17139 5.85514 8.20324 5.81528C8.26708 5.73537 8.35259 5.61788 8.43707 5.4699C8.6068 5.17264 8.76751 4.76147 8.7519 4.28791C8.73644 3.819 8.5273 3.39995 8.3119 3.09082C8.20512 2.93756 8.09922 2.8148 8.02034 2.73074C7.98099 2.6888 7.94856 2.65665 7.9264 2.63542C7.91533 2.62481 7.90675 2.61697 7.90126 2.61194C7.89856 2.60947 7.89662 2.60765 7.89543 2.60658C7.89483 2.60605 7.89435 2.60568 7.89416 2.60552Z" fill="white"/>
</svg>
